<?xml version="1.0" standalone="no"?>
<!DOCTYPE svg PUBLIC "-//W3C//DTD SVG 20010904//EN"
 "http://www.w3.org/TR/2001/REC-SVG-20010904/DTD/svg10.dtd">
<svg version="1.0" xmlns="http://www.w3.org/2000/svg"
 width="400.000000pt" height="150.000000pt" viewBox="0 0 400.000000 150.000000"
 preserveAspectRatio="xMidYMid meet">

<g transform="translate(0.000000,150.000000) scale(0.100000,-0.100000)"
fill="#615fff" stroke="none">
<path d="M992 1240 c-39 -24 -50 -46 -61 -125 -5 -33 -9 -46 -10 -30 -2 66
-55 103 -121 85 -65 -18 -77 -48 -100 -271 -36 -346 -36 -310 -7 -341 20 -21
35 -28 64 -28 62 0 99 36 114 110 6 34 7 33 8 -13 1 -63 33 -97 89 -97 48 0
87 28 101 73 10 31 33 213 46 362 3 39 10 102 16 142 9 60 8 77 -6 103 -26 51
-79 63 -133 30z m-75 -257 c-3 -10 -5 -2 -5 17 0 19 2 27 5 18 2 -10 2 -26 0
-35z m-12 -118 c-4 -48 -9 -84 -12 -82 -2 3 -1 44 3 91 4 48 9 84 12 82 2 -3
1 -44 -3 -91z m-18 -152 c-3 -10 -5 -4 -5 12 0 17 2 24 5 18 2 -7 2 -21 0 -30z"/>
<path d="M558 1084 c-15 -8 -34 -27 -43 -43 -12 -25 -55 -361 -55 -437 0 -39
42 -74 87 -74 85 0 107 42 127 236 9 82 18 177 22 211 6 60 6 63 -24 92 -34
35 -70 39 -114 15z"/>
<path d="M1250 745 l0 -217 133 4 c157 4 193 18 216 84 18 51 9 89 -29 124
l-29 27 24 23 c36 34 34 89 -4 132 l-29 33 -141 3 -141 4 0 -217z m228 123
c18 -18 14 -56 -7 -68 -11 -5 -42 -10 -70 -10 l-51 0 0 45 0 45 58 0 c32 0 63
-5 70 -12z m18 -173 c15 -23 15 -27 0 -50 -15 -22 -23 -25 -81 -25 l-65 0 0
50 0 50 65 0 c58 0 66 -3 81 -25z"/>
<path d="M1650 925 c0 -35 0 -35 45 -35 45 0 45 0 45 35 0 35 0 35 -45 35 -45
0 -45 0 -45 -35z"/>
<path d="M2100 745 l0 -215 45 0 45 0 0 215 0 215 -45 0 -45 0 0 -215z"/>
<path d="M2790 925 l0 -35 50 0 50 0 0 35 0 35 -50 0 -50 0 0 -35z"/>
<path d="M2600 890 c0 -43 -3 -50 -20 -50 -16 0 -20 -7 -20 -30 0 -23 5 -30
19 -30 17 0 19 -10 23 -105 4 -125 11 -136 92 -143 l56 -4 0 36 c0 29 -4 36
-20 36 -29 0 -40 30 -40 109 l0 71 30 0 c27 0 30 3 30 30 0 27 -3 30 -30 30
-29 0 -30 1 -30 50 l0 50 -45 0 -45 0 0 -50z"/>
<path d="M3023 839 c-62 -18 -111 -110 -98 -183 16 -83 73 -129 161 -129 59 0
103 22 128 63 28 48 22 60 -29 60 -25 0 -45 -4 -45 -10 0 -16 -38 -50 -55 -50
-9 0 -27 11 -40 25 -33 32 -35 100 -4 139 26 33 53 33 83 1 18 -19 33 -25 65
-25 39 0 42 2 36 23 -11 35 -56 76 -94 87 -42 12 -65 11 -108 -1z"/>
<path d="M3330 839 c-45 -18 -70 -50 -70 -89 0 -50 30 -75 108 -93 35 -8 68
-19 73 -24 15 -15 0 -41 -28 -48 -26 -6 -73 16 -73 35 0 6 -20 10 -45 10 -53
0 -58 -13 -20 -58 40 -48 139 -60 218 -27 28 12 50 63 42 101 -7 40 -36 62
-97 75 -24 5 -53 11 -65 14 -32 7 -30 43 1 51 25 6 66 -10 66 -26 0 -6 21 -10
46 -10 42 0 45 1 38 23 -10 34 -34 56 -73 67 -45 12 -88 12 -121 -1z"/>
<path d="M1650 685 l0 -155 45 0 45 0 0 155 0 155 -45 0 -45 0 0 -155z"/>
<path d="M1800 805 l0 -35 65 0 c36 0 65 -3 65 -8 0 -4 -31 -39 -70 -77 -65
-64 -70 -73 -70 -112 l0 -43 135 0 135 0 0 40 0 39 -77 3 -78 3 73 76 c62 66
72 81 72 113 l0 36 -125 0 -125 0 0 -35z"/>
<path d="M2276 698 c30 -78 53 -152 52 -163 -2 -13 -15 -23 -35 -30 -29 -8
-33 -13 -33 -43 l0 -34 56 4 c81 7 93 23 164 227 33 96 60 176 60 177 0 2 -21
4 -47 4 l-48 0 -24 -83 c-13 -45 -27 -88 -31 -96 -5 -9 -19 22 -37 80 l-29 94
-51 3 -52 3 55 -143z"/>
<path d="M2790 685 l0 -155 50 0 50 0 0 155 0 155 -50 0 -50 0 0 -155z"/>
</g>
</svg>
