<svg version="1.2" xmlns="http://www.w3.org/2000/svg" viewBox="0 0 799.9999999999999 799.9999999999999" width="799.9999999999999" height="799.9999999999999"><style></style><path  d="m79 593.6c4.3 1.6 8.8 2.8 13.3 3.5 18.8 2.9 37.7-1.6 53.1-12.8 15.4-11.2 25.5-27.8 28.5-46.6 1.6-10 1-19.9-1.5-29.2l101.2-56.4c7.9 9.8 18.4 17.6 30.9 22.1 4.3 1.5 8.7 2.7 13.3 3.4 18.8 3 37.7-1.6 53.1-12.8 12.8-9.3 21.9-22.4 26.4-37.3l124.4-4.3c7.8 16.6 22 30.1 40.2 36.7 4.3 1.6 8.8 2.8 13.3 3.5 38.9 6.1 75.5-20.6 81.6-59.4 2-12.9 0.5-25.6-4-37l88.6-91.1 2.5 34.9c0.6 7.6 5.6 13.9 12.3 16.3 2.5 0.9 5.1 1.3 7.8 1.1 10.4-0.8 18.1-9.8 17.4-20.1l-6-81.7c-0.4-5-2.7-9.6-6.4-12.9-3.8-3.2-8.7-4.9-13.7-4.5l-81.7 6c-10.4 0.7-18.1 9.7-17.4 20.1 0.8 10.3 9.8 18.1 20.1 17.3l38.1-2.7-84.4 86.8c-5.7-4.5-12.2-8.1-19.3-10.7-4.3-1.6-8.7-2.7-13.3-3.4-38.8-6.1-75.5 20.5-81.6 59.4q-0.3 2-0.5 4l-117.2 4.1c-5.6-22.5-22-41.6-44.8-49.9-4.3-1.5-8.8-2.7-13.3-3.4-38.9-6.1-75.5 20.5-81.6 59.4-1.2 7.3-1.2 14.6-0.1 21.6l-104.6 58.3c-7.2-7.1-15.9-12.8-25.9-16.4-4.3-1.6-8.7-2.7-13.3-3.4-18.8-3-37.7 1.5-53.1 12.8-15.4 11.2-25.5 27.7-28.5 46.6-5.3 33.6 14.1 66.5 46.1 78.1zm512.6-234.1c2.1 0.3 4.3 0.9 6.3 1.6 15.1 5.5 24.3 21.1 21.8 37-2.9 18.4-20.3 31-38.7 28.1-2.1-0.3-4.2-0.8-6.3-1.6-15.1-5.5-24.3-21-21.8-37 2.9-18.4 20.3-31 38.7-28.1zm-257.5 14.2c2.2 0.4 4.3 0.9 6.4 1.6 15.1 5.5 24.3 21.1 21.8 37.1-1.4 8.9-6.2 16.7-13.5 22-7.3 5.3-16.3 7.5-25.2 6.1-2.1-0.4-4.3-0.9-6.3-1.6-15.1-5.5-24.3-21.1-21.8-37.1 2.9-18.4 20.2-31 38.6-28.1zm-250.6 125.5c7.3-5.3 16.2-7.4 25.2-6q3.2 0.5 6.3 1.6c15.1 5.5 24.3 21.1 21.8 37-1.4 8.9-6.2 16.8-13.5 22.1-7.3 5.3-16.2 7.5-25.2 6-2.1-0.3-4.3-0.8-6.3-1.6-15.1-5.5-24.3-21-21.8-37 1.4-8.9 6.2-16.7 13.5-22.1z"/></svg>